# xmcd CD database file
#
# Track frame offsets:
#	150
#	14328
#	32004
#	36630
#	46054
#	63373
#	68306
#	83493
#	101783
#	105402
#	120731
#	138428
#	142460
#	161424
#	175713
#	178686
#	194840
#	214646
#
# Disc length: 2928 seconds
#
# Revision: 0
# Processed by: cddbd v1.4PL0 Copyright (c) Steve Scherf et al.
# Submitted via: CDex 1.50
#
DISCID=fb0b6e12
DTITLE=Travis Shredd and the Good Ol' Homeboys - Nashville Drive-By
DYEAR=1999
DGENRE=Country
TTITLE0=Nashville Drive-by
TTITLE1=Smoothe Flava
TTITLE2=The Merfdog Haiku
TTITLE3=Jiggy Crack Head (and I don't care)
TTITLE4=Half The Man
TTITLE5=The B-Naz Haiku
TTITLE6=Cousin Clem Takes Heroin
TTITLE7=Ear Bleedin' Waltz
TTITLE8=The MC Stevie-Bob Lethal Haiku
TTITLE9=Tattletale
TTITLE10=Come On Back
TTITLE11=The Tea-Böy Haiku
TTITLE12=Trailer Trash
TTITLE13=Prozac Princess
TTITLE14=The Tommy Hollywood Haiku
TTITLE15=Where We Goin'
TTITLE16=Yo Travis, Please Represent
TTITLE17=The Travis Shredd Haiku
EXTD=YEAR: 1999
EXTT0=
EXTT1=
EXTT2=
EXTT3=
EXTT4=
EXTT5=
EXTT6=
EXTT7=
EXTT8=
EXTT9=
EXTT10=
EXTT11=
EXTT12=
EXTT13=
EXTT14=
EXTT15=
EXTT16=
EXTT17=
PLAYORDER=
